<?xml version="1.0" encoding="UTF-8" standalone="no"?>
<!-- Generator: Adobe Illustrator 17.1.0, SVG Export Plug-In . SVG Version: 6.00 Build 0)  -->

<svg
   xmlns:dc="http://purl.org/dc/elements/1.1/"
   xmlns:cc="http://creativecommons.org/ns#"
   xmlns:rdf="http://www.w3.org/1999/02/22-rdf-syntax-ns#"
   xmlns:svg="http://www.w3.org/2000/svg"
   xmlns="http://www.w3.org/2000/svg"
   xmlns:sodipodi="http://sodipodi.sourceforge.net/DTD/sodipodi-0.dtd"
   xmlns:inkscape="http://www.inkscape.org/namespaces/inkscape"
   version="1.1"
   x="0px"
   y="0px"
   width="46.2px"
   height="17px"
   viewBox="0 0 46.2 17"
   enable-background="new 0 0 46.2 17"
   xml:space="preserve"
   id="svg2"
   inkscape:version="0.48.4 r9939"
   sodipodi:docname="IBM_logo_gray.svg"><metadata
   id="metadata119"><rdf:RDF><cc:Work
       rdf:about=""><dc:format>image/svg+xml</dc:format><dc:type
         rdf:resource="http://purl.org/dc/dcmitype/StillImage" /><dc:title></dc:title></cc:Work></rdf:RDF></metadata><defs
   id="defs117" /><sodipodi:namedview
   pagecolor="#ffffff"
   bordercolor="#666666"
   borderopacity="1"
   objecttolerance="10"
   gridtolerance="10"
   guidetolerance="10"
   inkscape:pageopacity="0"
   inkscape:pageshadow="2"
   inkscape:window-width="1232"
   inkscape:window-height="774"
   id="namedview115"
   showgrid="false"
   inkscape:zoom="6.1904761"
   inkscape:cx="-2.1"
   inkscape:cy="8.5"
   inkscape:window-x="0"
   inkscape:window-y="0"
   inkscape:window-maximized="0"
   inkscape:current-layer="g11" />
<g
   id="home_x5F_gray">
</g>
<g
   id="lock_x5F_checkmark_x5F_gray">
</g>
<g
   id="lock_x5F_checkmark_x5F_white">
</g>
<g
   id="lock_x5F_x_x5F_gray">
</g>
<g
   id="lock_x5F_x_x5F_white">
</g>
<g
   id="lock_x5F_open_x5F_white">
</g>
<g
   id="IBM_x5F_logo_x5F_gray">
	<g
   id="g11">
		<path
   fill-rule="evenodd"
   clip-rule="evenodd"
   fill="#808285"
   d="M43.8,15.6l0.1-0.4l0.3-0.4l0.4-0.3l0.2-0.1l0.2,0l0.5,0.1    l0.4,0.3l0.2,0.4l0.1,0.2l0,0.2l-0.1,0.5l-0.2,0.4l-0.4,0.3l-0.2,0.1H45l-0.5-0.1l-0.4-0.3l-0.3-0.4l-0.1-0.2V15.6L43.8,15.6z     M46,15.6l-0.1-0.4l-0.2-0.3l-0.3-0.2L45,14.6l-0.4,0.1l-0.3,0.2l-0.2,0.3L44,15.6l0.1,0.4l0.2,0.3l0.3,0.2l0.4,0.1l0.4-0.1    l0.3-0.2l0.2-0.3L46,15.6L46,15.6z M45.6,16.3h-0.2L45,15.7h-0.3v0.6h-0.1V15h0.6l0.2,0l0.1,0.1l0.1,0.1v0.1v0.2l-0.1,0.1    l-0.1,0.1h-0.2L45.6,16.3L45.6,16.3z M45,15.6l0.3,0l0.2,0l0-0.2l0-0.1l-0.1-0.1l-0.2,0h-0.4v0.5H45L45,15.6z"
   id="path13"
   style="fill:#ffffff;fill-opacity:1" />
		<polygon
   fill-rule="evenodd"
   clip-rule="evenodd"
   fill="#808285"
   points="0,0 8.3,0 8.3,1.2 0,1.2 0,0   "
   id="polygon15"
   style="fill:#ffffff;fill-opacity:1" />
		<polygon
   fill-rule="evenodd"
   clip-rule="evenodd"
   fill="#808285"
   points="0,2.2 8.3,2.2 8.3,3.4 0,3.4 0,2.2   "
   id="polygon17"
   style="fill:#ffffff;fill-opacity:1" />
		<polygon
   fill-rule="evenodd"
   clip-rule="evenodd"
   fill="#808285"
   points="2.4,4.5 5.9,4.5 5.9,5.7 2.4,5.7 2.4,4.5   "
   id="polygon19"
   style="fill:#ffffff;fill-opacity:1" />
		<polygon
   fill-rule="evenodd"
   clip-rule="evenodd"
   fill="#808285"
   points="2.4,6.8 5.9,6.8 5.9,8 2.4,8 2.4,6.8   "
   id="polygon21"
   style="fill:#ffffff;fill-opacity:1" />
		<polygon
   fill-rule="evenodd"
   clip-rule="evenodd"
   fill="#808285"
   points="2.4,9 5.9,9 5.9,10.2 2.4,10.2 2.4,9   "
   id="polygon23"
   style="fill:#ffffff;fill-opacity:1" />
		<polygon
   fill-rule="evenodd"
   clip-rule="evenodd"
   fill="#808285"
   points="2.4,11.3 5.9,11.3 5.9,12.5 2.4,12.5 2.4,11.3   "
   id="polygon25"
   style="fill:#ffffff;fill-opacity:1" />
		<polygon
   fill-rule="evenodd"
   clip-rule="evenodd"
   fill="#808285"
   points="0,13.6 8.3,13.6 8.3,14.7 0,14.7 0,13.6   "
   id="polygon27"
   style="fill:#ffffff;fill-opacity:1" />
		<polygon
   fill-rule="evenodd"
   clip-rule="evenodd"
   fill="#808285"
   points="0,15.8 8.3,15.8 8.3,17 0,17 0,15.8   "
   id="polygon29"
   style="fill:#ffffff;fill-opacity:1" />
		<polygon
   fill-rule="evenodd"
   clip-rule="evenodd"
   fill="#808285"
   points="9.4,2.2 22.2,2.2 22.4,2.8 22.6,3.4 9.4,3.4 9.4,2.2       "
   id="polygon31"
   style="fill:#ffffff;fill-opacity:1" />
		<polygon
   fill-rule="evenodd"
   clip-rule="evenodd"
   fill="#808285"
   points="11.8,4.5 15.3,4.5 15.3,5.7 11.8,5.7 11.8,4.5   "
   id="polygon33"
   style="fill:#ffffff;fill-opacity:1" />
		<polygon
   fill-rule="evenodd"
   clip-rule="evenodd"
   fill="#808285"
   points="18.9,4.5 22.7,4.5 22.6,5.1 22.5,5.7 18.9,5.7 18.9,4.5       "
   id="polygon35"
   style="fill:#ffffff;fill-opacity:1" />
		<polygon
   fill-rule="evenodd"
   clip-rule="evenodd"
   fill="#808285"
   points="11.8,9 21,9 21.2,9.3 21.5,9.6 22,10.2 11.8,10.2     11.8,9   "
   id="polygon37"
   style="fill:#ffffff;fill-opacity:1" />
		<polygon
   fill-rule="evenodd"
   clip-rule="evenodd"
   fill="#808285"
   points="11.8,11.3 15.3,11.3 15.3,12.5 11.8,12.5 11.8,11.3       "
   id="polygon39"
   style="fill:#ffffff;fill-opacity:1" />
		<polygon
   fill-rule="evenodd"
   clip-rule="evenodd"
   fill="#808285"
   points="18.9,11.3 22.5,11.3 22.6,11.8 22.7,12.5 18.9,12.5     18.9,11.3   "
   id="polygon41"
   style="fill:#ffffff;fill-opacity:1" />
		<polygon
   fill-rule="evenodd"
   clip-rule="evenodd"
   fill="#808285"
   points="9.4,13.6 22.5,13.6 22.4,14.2 22.2,14.7 9.4,14.7     9.4,13.6   "
   id="polygon43"
   style="fill:#ffffff;fill-opacity:1" />
		<polygon
   fill-rule="evenodd"
   clip-rule="evenodd"
   fill="#808285"
   points="9.4,15.8 21.3,15.8 20.5,16.4 20.1,16.5 19.7,16.7     18.8,16.9 17.7,17 16.5,17 9.4,17 9.4,15.8   "
   id="polygon45"
   style="fill:#ffffff;fill-opacity:1" />
		<polygon
   fill-rule="evenodd"
   clip-rule="evenodd"
   fill="#808285"
   points="26,6.8 32.7,6.8 33.1,7.8 33.5,6.8 40.2,6.8 40.2,8     36.6,8 36.6,7 36.3,8 29.9,8 29.5,7 29.5,8 26,8 26,6.8   "
   id="polygon47"
   style="fill:#ffffff;fill-opacity:1" />
		<polygon
   fill-rule="evenodd"
   clip-rule="evenodd"
   fill="#808285"
   points="26,9 29.5,9 29.5,10.2 26,10.2 26,9   "
   id="polygon49"
   style="fill:#ffffff;fill-opacity:1" />
		<polygon
   fill-rule="evenodd"
   clip-rule="evenodd"
   fill="#808285"
   points="26,11.3 29.5,11.3 29.5,12.5 26,12.5 26,11.3   "
   id="polygon51"
   style="fill:#ffffff;fill-opacity:1" />
		<polygon
   fill-rule="evenodd"
   clip-rule="evenodd"
   fill="#808285"
   points="23.6,13.6 29.5,13.6 29.5,14.7 23.6,14.7 23.6,13.6       "
   id="polygon53"
   style="fill:#ffffff;fill-opacity:1" />
		<polygon
   fill-rule="evenodd"
   clip-rule="evenodd"
   fill="#808285"
   points="23.6,15.8 29.5,15.8 29.5,17 23.6,17 23.6,15.8   "
   id="polygon55"
   style="fill:#ffffff;fill-opacity:1" />
		<polygon
   fill-rule="evenodd"
   clip-rule="evenodd"
   fill="#808285"
   points="35.9,0 42.6,0 42.6,1.2 35.5,1.2 35.9,0   "
   id="polygon57"
   style="fill:#ffffff;fill-opacity:1" />
		<polygon
   fill-rule="evenodd"
   clip-rule="evenodd"
   fill="#808285"
   points="35.1,2.2 42.6,2.2 42.6,3.4 34.7,3.4 35.1,2.2   "
   id="polygon59"
   style="fill:#ffffff;fill-opacity:1" />
		<polygon
   fill-rule="evenodd"
   clip-rule="evenodd"
   fill="#808285"
   points="34.3,4.5 40.2,4.5 40.2,5.7 33.9,5.7 34.3,4.5   "
   id="polygon61"
   style="fill:#ffffff;fill-opacity:1" />
		<polygon
   fill-rule="evenodd"
   clip-rule="evenodd"
   fill="#808285"
   points="36.6,9 40.2,9 40.2,10.2 36.6,10.2 36.6,9   "
   id="polygon63"
   style="fill:#ffffff;fill-opacity:1" />
		<polygon
   fill-rule="evenodd"
   clip-rule="evenodd"
   fill="#808285"
   points="36.6,11.3 40.2,11.3 40.2,12.5 36.6,12.5 36.6,11.3       "
   id="polygon65"
   style="fill:#ffffff;fill-opacity:1" />
		<polygon
   fill-rule="evenodd"
   clip-rule="evenodd"
   fill="#808285"
   points="36.6,13.6 42.6,13.6 42.6,14.7 36.6,14.7 36.6,13.6       "
   id="polygon67"
   style="fill:#ffffff;fill-opacity:1" />
		<polygon
   fill-rule="evenodd"
   clip-rule="evenodd"
   fill="#808285"
   points="36.6,15.8 42.6,15.8 42.6,17 36.6,17 36.6,15.8   "
   id="polygon69"
   style="fill:#ffffff;fill-opacity:1" />
		<polygon
   fill-rule="evenodd"
   clip-rule="evenodd"
   fill="#808285"
   points="30.3,9 35.9,9 35.5,10.2 30.7,10.2 30.3,9   "
   id="polygon71"
   style="fill:#ffffff;fill-opacity:1" />
		<polygon
   fill-rule="evenodd"
   clip-rule="evenodd"
   fill="#808285"
   points="31.1,11.3 35.1,11.3 34.7,12.5 31.5,12.5 31.1,11.3       "
   id="polygon73"
   style="fill:#ffffff;fill-opacity:1" />
		<polygon
   fill-rule="evenodd"
   clip-rule="evenodd"
   fill="#808285"
   points="31.8,13.6 34.4,13.6 33.9,14.7 32.3,14.7 31.8,13.6       "
   id="polygon75"
   style="fill:#ffffff;fill-opacity:1" />
		<polygon
   fill-rule="evenodd"
   clip-rule="evenodd"
   fill="#808285"
   points="32.6,15.8 33.6,15.8 33.2,17 33,17 32.6,15.8   "
   id="polygon77"
   style="fill:#ffffff;fill-opacity:1" />
		<polygon
   fill-rule="evenodd"
   clip-rule="evenodd"
   fill="#808285"
   points="11.8,8 21,8 21.2,7.7 21.5,7.4 22,6.8 11.8,6.8 11.8,8       "
   id="polygon79"
   style="fill:#ffffff;fill-opacity:1" />
		<polygon
   fill-rule="evenodd"
   clip-rule="evenodd"
   fill="#808285"
   points="30.3,0 23.6,0 23.6,1.2 30.7,1.2 30.3,0   "
   id="polygon81"
   style="fill:#ffffff;fill-opacity:1" />
		<polygon
   fill-rule="evenodd"
   clip-rule="evenodd"
   fill="#808285"
   points="31.1,2.2 23.6,2.2 23.6,3.4 31.5,3.4 31.1,2.2   "
   id="polygon83"
   style="fill:#ffffff;fill-opacity:1" />
		<polygon
   fill-rule="evenodd"
   clip-rule="evenodd"
   fill="#808285"
   points="31.9,4.5 26,4.5 26,5.7 32.3,5.7 31.9,4.5   "
   id="polygon85"
   style="fill:#ffffff;fill-opacity:1" />
		<polygon
   fill-rule="evenodd"
   clip-rule="evenodd"
   fill="#808285"
   points="9.4,1.2 21.3,1.2 20.5,0.6 20.1,0.4 19.7,0.3 18.8,0.1     17.7,0 16.5,0 9.4,0 9.4,1.2   "
   id="polygon87"
   style="fill:#ffffff;fill-opacity:1" />
	</g>
</g>
<g
   id="cybersecurity_x5F_logo">
</g>
<g
   id="arrow_x5F_down_x5F_white">
</g>
<g
   id="arrrow_x5F_down_x5F_gray">
</g>
<g
   id="workstation_x5F_security_x5F_gray">
</g>
<g
   id="workstation_x5F_security_x5F_white">
</g>
<g
   id="mobile_x5F_device_x5F_security_x5F_gray">
</g>
<g
   id="mobile_x5F_device_x5F_security_x5F_white">
</g>
<g
   id="device_x5F_registration_x5F_gray">
</g>
<g
   id="device_x5F_registration_x5F_white">
</g>
<g
   id="strong_x5F_passwords_x5F_gray">
</g>
<g
   id="strong_x5F_passwords_x5F_white">
</g>
<g
   id="phishing_x5F_gray">
</g>
<g
   id="phishing_x5F_white">
</g>
<g
   id="software_x5F_install_x5F_gray">
</g>
<g
   id="software_x5F_install_x5F_white">
</g>
<g
   id="file_x5F_encryption_x5F_gray">
</g>
<g
   id="file_x5F_encryption_x5F_white">
</g>
<g
   id="emblem_x5F_secure_x5F_computing">
</g>
<g
   id="arrow_x5F_previous_x5F_white">
</g>
<g
   id="arrow_x5F_next_x5F_white">
</g>
<g
   id="arrow_x5F_right_x5F_gray">
</g>
<g
   id="bookmark">
</g>
<g
   id="PDF_x5F_icon">
</g>
<g
   id="floating_x5F_nav_x5F_gray_x5F_dot">
</g>
<g
   id="floating_x5F_nav_x5F_green_x5F_dot">
</g>
<g
   id="arrow_x5F_right_x5F_red">
</g>
</svg>